<svg width="50" height="50" viewBox="0 0 512 512" xmlns="http://www.w3.org/2000/svg">
  <path fill="#808080" d="M471.6 163c-1.8 39.8-29.6 94.4-83.2 164.8C329 403 279.2 432 243.2 432c-32 0-59.2-29.6-81.6-88.8-14.8-54-29.6-107.8-44.8-161-16-58.4-32.8-87.4-51.2-87.4-4 0-18.4 8.4-42.4 25.6L.4 85.8c27.2-23.8 53.6-47.4 78.4-70.8C98.4 5.8 114.4 0 127.2 0c30 0 51.2 18.2 63.2 54.6 8.8 26.6 15.2 55.8 20.8 83.6 19.2 89.8 40.8 134.8 65.6 134.8 18.4 0 46.4-33 83.2-99-14.8-51.4-22.4-79.8-22.4-84.8 0-24.6 14.2-37 42.4-37 15.4 0 28 5.4 37.6 16.2 9.8 10.8 14.8 25.2 14 41.6z"/>
</svg>